<svg
        width="14"
        height="19"
        viewBox="0 0 14 19"
        fill="none"
        xmlns="http://www.w3.org/2000/svg"
>
    <path
            d="M13.5481 9.79279C12.1741 6.11171 7.28168 5.91322 8.4632 0.56303C8.55072 0.166051 8.13938 -0.140705 7.8068 0.0668067C4.62982 1.99757 2.34554 5.86811 4.26223 10.9386C4.41977 11.3536 3.94716 11.7416 3.60583 11.4709C2.02172 10.2349 1.85543 8.45749 1.99546 7.18536C2.04797 6.7162 1.45284 6.49064 1.19903 6.8786C0.603889 7.81691 0 9.33265 0 11.6153C0.332577 16.6677 4.47228 18.2196 5.96013 18.4181C8.08687 18.6977 10.3886 18.2917 12.0428 16.7309C13.8632 14.9896 14.5284 12.2107 13.5481 9.79279ZM5.42625 14.331C6.68654 14.0152 7.33419 13.0769 7.50923 12.2468C7.79805 10.9567 6.66904 9.69354 7.43046 7.65451C7.71928 9.34167 10.2924 10.3973 10.2924 12.2378C10.3624 14.5204 7.96434 16.4783 5.42625 14.331Z"
            fill="#646668"
    />
</svg>