<svg width="24" height="24" viewBox="0 0 30 30" fill="none" xmlns="http://www.w3.org/2000/svg">
    <path d="M8.22273 5.38636L3.39545 10.2136C-1.13182 14.7409 -1.13182 22.0773 3.39545 26.6045C7.92273 31.1318 15.2591 31.1318 19.7864 26.6045L27.9818 18.4091C29.3045 17.0864 29.3045 14.9182 27.9818 13.5818C27.8182 13.4182 27.6409 13.2682 27.45 13.1455L27.9818 12.6136C29.3045 11.2909 29.3045 9.12273 27.9818 7.78636C27.7636 7.56818 27.5045 7.37727 27.2455 7.22727C27.7909 5.97273 27.5591 4.47273 26.5364 3.45C25.35 2.26364 23.5091 2.14091 22.1727 3.06818C22.0364 2.86364 21.8864 2.67273 21.7091 2.49545C20.3864 1.17273 18.2182 1.17273 16.8818 2.49545L13.4591 5.91818C13.3364 5.72727 13.1864 5.55 13.0227 5.38636C11.7 4.06364 9.54546 4.06364 8.22273 5.38636ZM10.1455 7.32273C10.4182 7.05 10.8409 7.05 11.1136 7.32273C11.3864 7.59545 11.3864 8.01818 11.1136 8.29091L6.77727 12.6273C8.37273 14.2227 8.37273 16.8136 6.77727 18.4091L8.7 20.3318C10.6773 18.3545 11.1818 15.4636 10.2273 13.0227L18.8182 4.43182C19.0909 4.15909 19.5136 4.15909 19.7864 4.43182C20.0591 4.70455 20.0591 5.12727 19.7864 5.4L13.5136 11.6727L15.4364 13.5955L23.6318 5.4C23.9045 5.12727 24.3273 5.12727 24.6 5.4C24.8727 5.67273 24.8727 6.09545 24.6 6.36818L16.4045 14.5636L18.3273 16.4864L25.0773 9.73636C25.35 9.46364 25.7727 9.46364 26.0455 9.73636C26.3182 10.0091 26.3182 10.4318 26.0455 10.7045L18.3273 18.4227L20.25 20.3455L25.0773 15.5182C25.35 15.2455 25.7727 15.2455 26.0455 15.5182C26.3182 15.7909 26.3182 16.2136 26.0455 16.4864L17.8636 24.6818C14.4 28.1455 8.79545 28.1455 5.33182 24.6818C1.86818 21.2182 1.86818 15.6136 5.33182 12.15L10.1455 7.32273ZM30 21.8182C30 26.3318 26.3318 30 21.8182 30V27.9545C25.2 27.9545 27.9545 25.2 27.9545 21.8182H30ZM0 8.18182C0 3.66818 3.66818 0 8.18182 0V2.04545C4.8 2.04545 2.04545 4.8 2.04545 8.18182H0Z"
          fill="#A3A5A8"/>
</svg>
