<svg width="674" height="56" viewBox="0 0 674 70" fill="none" xmlns="http://www.w3.org/2000/svg">
<path d="M36.214 58.7257V68.9029H21.1859C15.6023 68.9029 11.0681 64.3687 11.0681 58.7851V31.3623H0V21.3831H11.0483V7.1272H22.4531V21.3831H36.214V31.3623H22.4531V58.7257H36.214Z" fill="white"/>
<path d="M40.9863 45.1444C40.9863 30.6112 51.3417 20.4341 65.2214 20.4341C79.1011 20.4341 89.4565 30.6112 89.4565 45.1444C89.4565 59.6775 79.1011 69.8546 65.2214 69.8546C51.3417 69.8546 40.9863 59.6973 40.9863 45.1444ZM78.0517 45.1444C78.0517 36.5908 72.5474 30.8884 65.2214 30.8884C57.8954 30.8884 52.3911 36.5908 52.3911 45.1444C52.3911 53.6979 57.8954 59.4003 65.2214 59.4003C72.5474 59.4003 78.0517 53.6979 78.0517 45.1444Z" fill="white"/>
<path d="M108.86 43.9162V68.9036H97.4556V0H108.86V42.1144L127.294 21.4037H142.302L121.413 42.9658L143.55 68.9036H129.294L108.86 43.9162Z" fill="white"/>
<path d="M189.94 48.9459H154.221C155.449 55.8759 160.023 59.8755 167.052 59.8755C172.081 59.8755 175.031 57.9747 176.556 54.6483H188.911C186.06 64.5285 177.783 69.8546 166.577 69.8546C152.994 69.8546 143.015 59.6775 143.015 45.1444C143.015 30.6112 152.994 20.4341 166.577 20.4341C180.159 20.4341 190.158 30.6112 190.158 45.1444C190.138 46.4709 190.039 47.7183 189.94 48.9459ZM154.301 40.8676H178.833C177.605 34.2148 173.229 30.4132 166.577 30.4132C159.924 30.4132 155.548 34.2148 154.301 40.8676Z" fill="white"/>
<path d="M209.542 68.9042H198.137V21.3845H209.542V28.2352C212.492 23.2061 217.343 20.4341 223.224 20.4341C233.302 20.4341 240.905 27.0869 240.905 40.4914V68.9042H229.5V42.7684C229.5 34.789 225.699 30.4132 219.521 30.4132C213.344 30.4132 209.542 34.789 209.542 42.7684V68.9042Z" fill="white"/>
<path d="M309.809 58.7257V68.9029H294.781C289.197 68.9029 284.663 64.3687 284.663 58.7851V31.3623H273.615V21.3831H284.663V7.1272H296.068V21.3831H309.829V31.3623H296.068V58.7257H309.809Z" fill="white"/>
<path d="M361.744 48.9459H326.005C327.233 55.8759 331.806 59.8755 338.835 59.8755C343.865 59.8755 346.815 57.9747 348.339 54.6483H360.694C357.843 64.5285 349.567 69.8546 338.36 69.8546C324.777 69.8546 314.798 59.6775 314.798 45.1444C314.798 30.6112 324.777 20.4341 338.36 20.4341C351.943 20.4341 361.942 30.6112 361.942 45.1444C361.942 46.4709 361.843 47.7183 361.744 48.9459ZM326.104 40.8676H350.636C349.409 34.2148 345.033 30.4132 338.38 30.4132C331.707 30.4132 327.332 34.2148 326.104 40.8676Z" fill="white"/>
<path d="M417.659 68.9042H406.254V21.3845H417.659V27.562C420.411 23.0081 424.985 20.4341 430.39 20.4341C436.845 20.4341 442.27 23.3843 445.022 29.1856C447.873 23.5823 453.298 20.4341 459.852 20.4341C469.455 20.4341 476.583 26.8096 476.583 39.541V68.9042H465.178V41.818C465.178 34.4128 461.753 30.4132 456.15 30.4132C450.546 30.4132 447.121 34.4128 447.121 41.818V68.9042H435.716V41.818C435.716 34.4128 432.291 30.4132 426.687 30.4132C421.084 30.4132 417.659 34.4128 417.659 41.818V68.9042Z" fill="white"/>
<path d="M486.008 7.12796C486.008 3.04918 489.057 0 493.136 0C497.314 0 500.264 3.04918 500.264 7.12796C500.264 11.1275 497.314 14.2559 493.136 14.2559C489.057 14.2559 486.008 11.1275 486.008 7.12796Z" fill="white"/>
<path d="M498.838 21.3835H487.434V68.9033H498.838V21.3835Z" fill="white"/>
<path d="M521.569 68.9042H510.165V21.3845H521.569V28.2352C524.519 23.2061 529.37 20.4341 535.251 20.4341C545.329 20.4341 552.932 27.0869 552.932 40.4914V68.9042H541.528V42.7684C541.528 34.789 537.726 30.4132 531.548 30.4132C525.371 30.4132 521.569 34.789 521.569 42.7684V68.9042Z" fill="white"/>
<path d="M592.492 61.8753C589.443 67.4786 583.938 69.8546 577.384 69.8546C569.207 69.8546 561.426 65.7759 561.426 56.1729C561.426 35.7394 592.314 44.8672 592.314 35.3632C592.314 31.6606 588.512 29.4628 583.562 29.4628C578.335 29.4628 574.731 32.215 574.731 37.5412H562.851C562.851 25.1861 572.93 20.4341 583.562 20.4341C594.016 20.4341 603.718 24.7109 603.718 35.8384V68.9042H592.492V61.8753ZM579.741 60.3507C586.393 60.3507 592.472 56.5491 592.472 49.3221V47.1441C584.869 50.2725 573.088 49.3221 573.088 55.4205C573.088 58.7469 575.939 60.3507 579.741 60.3507Z" fill="white"/>
<path d="M614.074 68.9036V0H625.479V68.9036H614.074Z" fill="white"/>
<path d="M394.81 32.4119H399.681V21.3042H395.899C390.078 21.3042 384.475 24.1158 381.406 29.0658L381.327 29.1846V21.4824H369.922V69.0022H381.327V44.7671C381.327 36.7877 386.277 32.4119 394.731 32.4119C394.771 32.4119 394.791 32.4119 394.81 32.4119Z" fill="white"/>
<path d="M635.854 68.9045V58.7075H673.87V68.9045H635.854Z" fill="white"/>
</svg>
