<svg width="32" height="32" viewBox="0 0 40 40" fill="none" xmlns="http://www.w3.org/2000/svg">
    <path fill-rule="evenodd" clip-rule="evenodd"
          d="M25.4048 7.89528C25.4048 11.5969 28.41 14.5977 32.1171 14.5977C32.5253 14.5957 32.9324 14.5565 33.3335 14.4806V27.7685C33.3335 33.3587 30.036 36.666 24.4375 36.666H12.2441C6.631 36.666 3.3335 33.3587 3.3335 27.7685V15.5928C3.3335 10.0026 6.631 6.66602 12.2441 6.66602H25.5221C25.4433 7.07102 25.404 7.48271 25.4048 7.89528ZM21.9163 24.827L26.6794 18.6807V18.6514C27.0871 18.1035 26.9831 17.3308 26.4449 16.9099C26.1844 16.7088 25.8533 16.6218 25.5274 16.6687C25.2015 16.7155 24.9086 16.8924 24.7155 17.1587L20.6999 22.3246L16.1273 18.7246C15.8663 18.5212 15.5342 18.4314 15.206 18.4754C14.8779 18.5195 14.5813 18.6937 14.3833 18.9587L9.45904 25.3099C9.28595 25.5257 9.19276 25.7945 9.19523 26.0709C9.16666 26.6296 9.51945 27.1371 10.0536 27.3057C10.5878 27.4743 11.1686 27.2615 11.4669 26.788L15.5851 21.4611L20.1576 25.0465C20.4177 25.2562 20.752 25.3512 21.0837 25.3098C21.4153 25.2684 21.7159 25.0941 21.9163 24.827Z"
          fill="#200E32"/>
    <ellipse opacity="0.4" cx="32.5002" cy="7.49967" rx="4.16667" ry="4.16667" fill="#200E32"/>
</svg>
