<svg width="24" height="24" viewBox="0 0 30 30" fill="none" xmlns="http://www.w3.org/2000/svg">
    <path d="M27 6.66667H21V3.33333L18 0H12L9 3.33333V6.66667H3C1.35 6.66667 0 8.16667 0 10V18.3333C0 19.5833 0.6 20.6333 1.5 21.2167V26.6667C1.5 28.5167 2.835 30 4.5 30H25.5C27.165 30 28.5 28.5167 28.5 26.6667V21.2C29.385 20.6167 30 19.55 30 18.3333V10C30 8.16667 28.65 6.66667 27 6.66667ZM12 3.33333H18V6.66667H12V3.33333ZM3 10H27V18.3333H19.5V13.3333H10.5V18.3333H3V10ZM16.5 20H13.5V16.6667H16.5V20ZM25.5 26.6667H4.5V21.6667H10.5V23.3333H19.5V21.6667H25.5V26.6667Z"
          fill="#A3A5A8"/>
</svg>
